<svg width="151" height="31" viewBox="0 0 151 31" xmlns="http://www.w3.org/2000/svg"><title>logo-smooch</title><defs><linearGradient x1="100.572%" y1="-6.015%" x2="40.65%" y2="58.012%" id="a"><stop stop-color="#EE2A7B" offset="29.15%"/><stop stop-color="#CB2D82" offset="48.52%"/><stop stop-color="#A7308A" offset="72.17%"/><stop stop-color="#913290" offset="90.07%"/><stop stop-color="#883293" offset="100%"/></linearGradient><linearGradient x1="65.881%" y1="78.397%" x2="-13.773%" y2="-13.465%" id="b"><stop stop-color="#883293" offset="0%"/><stop stop-color="#913290" offset="11.22%"/><stop stop-color="#A7308A" offset="31.45%"/><stop stop-color="#CB2D82" offset="58.18%"/><stop stop-color="#EE2A7B" offset="80.06%"/></linearGradient></defs><g fill="none" fill-rule="evenodd"><path d="M1.382 7.09C4.244.956 11.514-1.715 17.666 1.154c6.152 2.87 8.784 10.19 5.922 16.325a12.421 12.421 0 0 1-6.909 6.365l1.744 4.847c.263.792-.165 1.682-.954 1.98-.494.164-1.02.098-1.415-.166l-10.89-8.343c-.032 0-.032-.033-.065-.033l-.23-.165C.526 18.5-1.086 12.367 1.382 7.09z" fill="url(#a)"/><path d="M39.05 12.17c-1.744-5.475-7.567-8.51-13.06-6.761a8.39 8.39 0 0 0-1.58.66 14.51 14.51 0 0 1-.099 12.036 14.717 14.717 0 0 1-2.895 4.156 10.136 10.136 0 0 0 2.994 2.308l-2.007 3.859c-.296.66-.066 1.418.592 1.748.395.197.823.197 1.185 0l10.034-5.772c.032 0 .032-.033.065-.033l.23-.132c4.047-2.407 6.02-7.387 4.54-12.07z" fill="url(#b)"/><path d="M51.748 13.785c-.033-.066-.033-.165-.033-.264 0-.857.954-1.484 2.402-1.484 1.348 0 2.664.429 3.618 1.056.362.23.658.461.889.725l.493-.89 1.119-1.946c-1.514-1.187-3.553-2.078-6.12-2.078-4.046 0-6.25 2.243-6.25 4.815 0 .198 0 .363.033.528.526 5.342 8.981 3.496 8.981 5.903 0 .956-.822 1.616-2.566 1.616-1.908 0-4.145-1.055-5.264-2.11l-1.743 2.901c1.612 1.484 4.178 2.375 6.81 2.375 4.21 0 6.612-2.045 6.612-4.88.033-5.904-8.323-4.387-8.981-6.267zm31.22-3.661c-2.566-1.747-6.777-1.813-9.343-.065h-.066c-3.454-2.342-9.836-1.452-11.25 2.44a5.04 5.04 0 0 0-.264 1.616v10.454h4.145V14.115c0-2.737 5.33-2.77 5.33 0h.032v10.454h4.145V14.115c0-2.77 5.33-2.737 5.33 0v10.454h4.145V14.115c0-1.781-.888-3.1-2.204-3.99zm46.32 2.342c1.381 0 2.5.56 3.224 1.649l2.631-2.474c-1.02-1.385-2.895-2.737-6.02-2.737-4.671 0-8.06 3.331-8.06 8.014 0 4.716 3.422 8.014 8.06 8.014 3.125 0 5-1.385 6.02-2.77l-2.631-2.474c-.724 1.056-1.843 1.682-3.224 1.682-2.435 0-4.146-1.814-4.146-4.452s1.744-4.452 4.146-4.452zm11.283-3.199V3.199c-1.25.132-2.631.297-4.112.462v20.875h4.112V13.752c.527-2.407 6.087-2.308 6.087.297v10.487h4.145V14.148c0-4.617-5.461-6.266-10.232-4.881zm-46.122-.363c-5 0-8.027 3.66-8.027 8.014 0 4.353 3.027 8.014 8.027 8.014 5.033 0 8.06-3.694 8.06-8.014 0-4.32-2.994-8.014-8.06-8.014zm0 12.466c-2.5 0-3.882-2.044-3.882-4.452 0-2.374 1.382-4.42 3.882-4.42 2.533 0 3.915 2.046 3.915 4.42 0 2.375-1.382 4.452-3.915 4.452zM111.95 8.904c-5 0-8.026 3.66-8.026 8.014 0 4.353 3.026 8.014 8.027 8.014 5.033 0 8.06-3.694 8.06-8.014 0-4.32-3.027-8.014-8.06-8.014zm0 12.466c-2.5 0-3.881-2.044-3.881-4.452 0-2.374 1.381-4.42 3.882-4.42 2.533 0 3.914 2.046 3.914 4.42-.033 2.375-1.414 4.452-3.914 4.452z" fill="#383352"/></g></svg>