<svg width="147" height="31" viewBox="0 0 147 31" xmlns="http://www.w3.org/2000/svg"><title>logo-microsoft</title><g fill="none" fill-rule="evenodd"><path d="M0 0h14.86v14.747H0V0" fill="#F25022"/><path d="M14.86 0h1.517l.001 14.747h14.859V0h115.044v11.47c-1.06.003-2.12-.009-3.18.006-.024-1.331-.002-2.662-.011-3.993-1.06.317-2.115.655-3.18.956-.026 1.01-.002 2.02-.014 3.03-1.567 0-3.134.002-4.701-.002.02-.795-.056-1.597.06-2.388.095-.623.459-1.247 1.071-1.488.772-.314 1.635-.105 2.369.216-.004-.912.007-1.823-.006-2.734-1.544-.421-3.314-.339-4.684.546-.884.562-1.525 1.46-1.813 2.455-.34 1.103-.167 2.268-.221 3.4-.744-.006-1.486-.013-2.228.004.008.852.005 1.704.002 2.555.745.015 1.491-.002 2.237.012-.007 3.585-.002 7.17-.002 10.755h3.214V14.041c1.568-.002 3.136-.002 4.704 0 .005 2.285-.004 4.57.004 6.856.014 1.064.197 2.202.907 3.043.615.744 1.592 1.084 2.534 1.153.993.07 2.02-.05 2.938-.446V31H31.238V16.253h-14.86V31H14.86V16.254c-4.953-.003-9.907 0-14.86-.002v-1.505h14.86V0" fill="#FEFEFE"/><path d="M16.377 0h14.86v14.747H16.378V0" fill="#80BA01"/><path d="M134.005 5.619c1.37-.885 3.14-.967 4.684-.546.013.91.002 1.822.006 2.734-.734-.32-1.597-.53-2.369-.216-.612.241-.976.865-1.072 1.488-.115.791-.04 1.593-.06 2.388 1.568.004 3.135.001 4.702.002.012-1.01-.012-2.02.014-3.03 1.065-.301 2.12-.639 3.18-.956.009 1.33-.013 2.662.011 3.993 1.06-.015 2.12-.003 3.18-.007v2.59c-1.064-.043-2.128-.012-3.192-.015.004 1.489 0 2.978.002 4.467.017.825-.045 1.654.052 2.476.06.484.237 1.021.695 1.272.766.426 1.74.24 2.443-.228v2.616c-.918.396-1.945.516-2.938.446-.942-.069-1.919-.409-2.534-1.153-.71-.84-.893-1.979-.907-3.043-.008-2.285 0-4.57-.004-6.857-1.568 0-3.136-.001-4.703.001-.002 3.586-.001 7.173-.001 10.759h-3.214c0-3.585-.005-7.17.002-10.755-.746-.014-1.492.003-2.237-.012.003-.85.006-1.703-.002-2.555.742-.017 1.484-.01 2.228-.004.054-1.132-.12-2.297.221-3.4.288-.995.93-1.893 1.813-2.455m-68.81.186c.648-.097 1.35.122 1.778.625.504.551.597 1.428.224 2.072-.413.726-1.336 1.064-2.14.89-.834-.15-1.53-.92-1.492-1.778-.024-.903.737-1.708 1.63-1.809M40.564 6.2h4.674c1.455 3.666 2.92 7.328 4.377 10.994.372.917.72 1.844 1.11 2.754 1.872-4.58 3.77-9.15 5.628-13.737 1.498-.024 2.998-.006 4.497-.01-.004 6.2-.002 12.399 0 18.598-1.083-.003-2.163.009-3.244-.006.011-4.575-.001-9.15.005-13.725a7.9 7.9 0 0 0-.02-.617c-.063.096-.12.195-.168.298-1.858 4.683-3.75 9.352-5.597 14.04-.77.027-1.54.001-2.31.014-1.916-4.683-3.808-9.377-5.715-14.063a3.532 3.532 0 0 0-.161-.283c-.04 2.004-.006 4.01-.017 6.015 0 2.775-.002 5.551 0 8.327-1.02.003-2.04 0-3.059.001 0-6.2-.002-12.4 0-18.6m33.476 5.257a8.863 8.863 0 0 1 4.773.014c.32.088.63.212.917.379-.018 1.016 0 2.033-.01 3.05-1.036-.786-2.35-1.284-3.668-1.12-1.046.095-2.044.633-2.67 1.472-.804 1.04-.99 2.42-.851 3.693.104.995.519 1.99 1.299 2.65.81.714 1.946.968 3.006.888 1.048-.12 2.037-.56 2.884-1.174.01.962-.004 1.925.007 2.888-1.313.776-2.889.976-4.393.902-1.538-.08-3.072-.659-4.186-1.732-1.21-1.158-1.867-2.809-1.945-4.462-.079-1.72.274-3.513 1.27-4.949.836-1.225 2.143-2.092 3.566-2.5m21.775-.229c1.542-.195 3.17-.108 4.6.539a5.661 5.661 0 0 1 2.808 2.816c.595 1.31.74 2.782.639 4.204-.1 1.388-.539 2.778-1.413 3.881-.895 1.171-2.245 1.965-3.69 2.26a9.3 9.3 0 0 1-3.763-.004c-1.478-.313-2.846-1.165-3.712-2.403-1.018-1.435-1.307-3.26-1.178-4.978.088-1.46.545-2.93 1.484-4.074 1.028-1.281 2.605-2.038 4.225-2.24m13.332.026c1.486-.26 3.042-.07 4.448.46.002.977 0 1.954.001 2.931a5.695 5.695 0 0 0-3.375-.99c-.601.024-1.261.276-1.535.843-.218.56-.067 1.296.465 1.632.912.605 1.999.862 2.943 1.404.743.414 1.465.956 1.841 1.737.708 1.464.408 3.397-.836 4.488-1.188 1.102-2.899 1.407-4.472 1.348-1.118-.071-2.24-.29-3.268-.744.005-1.028-.006-2.055.006-3.083a7.056 7.056 0 0 0 2.915 1.249c.735.119 1.534.124 2.218-.202.655-.323.773-1.247.384-1.812-.364-.436-.899-.676-1.403-.911-.947-.423-1.942-.776-2.774-1.41-.584-.452-1.027-1.09-1.2-1.81-.257-1.06-.177-2.254.444-3.18.71-1.08 1.942-1.728 3.198-1.95m12.284-.031c1.603-.198 3.306-.09 4.77.643 1.276.633 2.266 1.778 2.76 3.1.387 1.013.523 2.106.5 3.184.003 1.61-.435 3.263-1.454 4.54-.953 1.237-2.411 2.04-3.95 2.292-1.506.242-3.097.18-4.528-.38a5.936 5.936 0 0 1-3.264-3.143c-.637-1.45-.704-3.081-.505-4.63.207-1.55.914-3.064 2.12-4.094.986-.86 2.257-1.347 3.55-1.512m-34.513.451c.888-.53 2.015-.573 2.983-.25-.004 1.064 0 2.127-.003 3.191a3.437 3.437 0 0 0-2.172-.506c-.912.102-1.635.798-2.01 1.595-.407.844-.484 1.799-.458 2.722V24.8h-3.168c-.003-4.441.004-8.883-.003-13.324a176.64 176.64 0 0 1 3.173-.002c-.004.762 0 1.525-.003 2.288.344-.83.855-1.636 1.661-2.088m-23.059-.2c1.065-.005 2.132-.016 3.198.005-.013 4.44-.001 8.88-.006 13.321h-3.19c-.003-4.442 0-8.884-.002-13.326" fill="#777"/><path d="M96.772 13.759c.966-.063 1.994.208 2.689.905.742.724 1.03 1.776 1.109 2.778.057 1.098.012 2.241-.453 3.258-.307.686-.869 1.265-1.578 1.54-.83.316-1.763.334-2.62.114a3.2 3.2 0 0 1-2.014-1.65c-.518-1.025-.596-2.211-.488-3.336.097-1.023.456-2.075 1.241-2.781.57-.528 1.346-.786 2.114-.828m25.525.002c.908-.063 1.877.146 2.575.754.643.53 1 1.323 1.163 2.122.184.937.182 1.907.027 2.849-.124.701-.368 1.4-.831 1.956-.467.558-1.161.898-1.878 1.003-.77.114-1.58.06-2.3-.248-.776-.326-1.377-.993-1.694-1.76-.381-.914-.457-1.926-.381-2.904.073-.947.343-1.919.974-2.655.574-.687 1.456-1.067 2.345-1.117m20.792.283c1.064.003 2.128-.028 3.192.015v7.972c-.704.468-1.677.654-2.443.228-.458-.25-.636-.788-.695-1.272-.097-.822-.035-1.651-.052-2.476-.001-1.49.002-2.978-.002-4.467" fill="#FEFEFE"/><path d="M0 16.252c4.953.002 9.907 0 14.86.002V31H0V16.252" fill="#02A4EF"/><path d="M16.378 16.254c4.953-.002 9.906-.001 14.86-.001V31h-14.86V16.254" fill="#FFB902"/></g></svg>