<svg width="111" height="38" viewBox="0 0 111 38" xmlns="http://www.w3.org/2000/svg"><title>logo-api</title><g fill="none" fill-rule="evenodd"><g fill="#DE6B2B"><path d="M0 11.297l15.417 8.217v15.405L0 26.703z"/><path d="M9.25 22.595l21.583-11.298v15.406L9.25 38zM15.426 0l15.407 9.243L15.46 17.46 0 9.243z"/></g><path d="M47.391 18.463a4.82 4.82 0 0 1-.848.428c-.285.109-.676.21-1.174.303l-.996.187c-.933.165-1.602.368-2.007.606-.684.404-1.027 1.031-1.027 1.881 0 .757.21 1.303.63 1.64.42.337.931.505 1.533.505.954 0 1.833-.28 2.637-.84.804-.559 1.221-1.58 1.252-3.062v-1.648zM44.7 16.396c.82-.104 1.405-.233 1.758-.389.632-.27.949-.689.949-1.259 0-.694-.241-1.174-.724-1.438-.482-.264-1.19-.396-2.123-.396-1.048 0-1.79.259-2.225.777-.311.383-.518.902-.622 1.554h-4.278c.093-1.482.508-2.7 1.244-3.653 1.172-1.492 3.184-2.238 6.036-2.238 1.857 0 3.506.367 4.948 1.103 1.441.736 2.162 2.125 2.162 4.167v7.773c0 .538.01 1.191.031 1.958.031.58.12.974.265 1.182.145.207.363.378.653.513v.653h-4.823a4.932 4.932 0 0 1-.28-.964c-.052-.3-.093-.643-.124-1.026a9.108 9.108 0 0 1-2.116 1.694c-.954.55-2.033.824-3.236.824-1.535 0-2.803-.438-3.804-1.313-1-.876-1.5-2.117-1.5-3.724 0-2.083.803-3.59 2.41-4.523.882-.508 2.178-.871 3.89-1.089l1.509-.186zm20.925-1.632c-.596-1.006-1.564-1.508-2.902-1.508-1.607 0-2.712.761-3.313 2.285-.311.808-.467 1.834-.467 3.078 0 1.969.524 3.353 1.571 4.15.623.467 1.359.7 2.21.7 1.234 0 2.175-.477 2.823-1.43.648-.954.972-2.223.972-3.809 0-1.306-.298-2.461-.894-3.466zm3.407-3.187c1.374 1.46 2.061 3.606 2.061 6.436 0 2.984-.671 5.26-2.014 6.824-1.344 1.565-3.073 2.348-5.189 2.348-1.348 0-2.468-.337-3.36-1.01-.488-.374-.965-.918-1.431-1.633v8.83h-4.387V9.758h4.247v2.503c.477-.736.985-1.317 1.524-1.741.986-.757 2.157-1.135 3.516-1.135 1.981 0 3.659.73 5.033 2.192zm8.9-3.84h-4.497V3.648h4.496v4.089zm-4.497 2.02h4.496v16.946h-4.496V9.758zm7.787 12.313h4.714v4.633h-4.714V22.07zm17.355-3.607a4.82 4.82 0 0 1-.848.428c-.285.109-.677.21-1.174.303l-.996.187c-.934.165-1.603.368-2.007.606-.685.404-1.027 1.031-1.027 1.881 0 .757.21 1.303.63 1.64.42.337.931.505 1.533.505.954 0 1.833-.28 2.637-.84.803-.559 1.22-1.58 1.252-3.062v-1.648zm-2.691-2.067c.819-.104 1.405-.233 1.758-.389.632-.27.948-.689.948-1.259 0-.694-.24-1.174-.723-1.438-.482-.264-1.19-.396-2.123-.396-1.048 0-1.79.259-2.225.777-.311.383-.519.902-.622 1.554H88.62c.094-1.482.509-2.7 1.245-3.653 1.172-1.492 3.184-2.238 6.036-2.238 1.857 0 3.506.367 4.947 1.103 1.442.736 2.163 2.125 2.163 4.167v7.773c0 .538.01 1.191.03 1.958.032.58.12.974.265 1.182.146.207.363.378.654.513v.653h-4.823a4.932 4.932 0 0 1-.28-.964c-.052-.3-.093-.643-.124-1.026a9.108 9.108 0 0 1-2.116 1.694c-.954.55-2.033.824-3.236.824-1.535 0-2.803-.438-3.804-1.313-1-.876-1.501-2.117-1.501-3.724 0-2.083.804-3.59 2.411-4.523.882-.508 2.178-.871 3.89-1.089l1.509-.186zm14.694-8.66h-4.496V3.649h4.496v4.089zm-4.496 2.022h4.496v16.945h-4.496V9.758z" fill="#46515A"/></g></svg>