<svg width="99" height="29" viewBox="0 0 99 29" xmlns="http://www.w3.org/2000/svg"><title>logo-wit</title><path d="M80.494 8.193c-2.626 0-5.457.489-7.407 1.288l.756 5.332c1.473-.684 3.819-1.225 5.61-1.225 2.029 0 3.115.644 3.115 2.165 0 .114-.001.53-.04.91-8.079 0-11.157 1.522-11.157 6.048 0 3.992 2.474 6.283 6.692 6.283 1.79 0 3.465.015 5.057-1.278h.194l.306 1.278h5.466c-.846-1.506-.926-4.778-.899-6.672.034-2.396.225-5.194.225-7.171 0-5.134-3.66-6.958-7.918-6.958zm1.941 12.566l.03.511c.06.932-.221 1.732-.857 2.39-.637.65-1.453 1.003-2.442 1.053-.793.04-1.43-.096-1.9-.399-.462-.31-.699-.757-.736-1.338-.04-.632.198-1.118.726-1.471.537-.353 1.355-.558 2.452-.613l2.727-.133zm-25.146-6.947V8.2h-4.782V1.362l-6.49 2.49V8.2h-3.032v5.612h3.032v6.364c0 3.873 1.323 8.617 8.923 8.814l1.964-5.573c-3.16-.356-4.397-1.541-4.397-4.822v-4.783h4.782M.42 8.211L5.032 28.99h5.396C9.057 21.762 7.902 15.62 6.5 8.21H.42zm11.463 0l-1.169 4.238 2.09 11.08 2.113-7.627 3.643 13.087h6.266L29.4 8.21h-6.055l-2.188 11.604L17.95 8.211h-6.067zm27.273-4.966a3.245 3.245 0 1 1-6.49 0 3.245 3.245 0 0 1 6.49 0zm28.18 22.51a3.245 3.245 0 1 1-6.49 0 3.245 3.245 0 0 1 6.49 0zm31.181-22.51a3.245 3.245 0 1 1-6.49 0 3.245 3.245 0 0 1 6.49 0zM39.156 8.224h-6.49v20.768h6.49m59.361-20.67h-6.49v20.67h6.49" fill="#1A2326" fill-rule="evenodd"/></svg>