<?xml version="1.0" encoding="UTF-8"?>
<svg width="70px" height="70px" viewBox="0 0 70 70" version="1.1" xmlns="http://www.w3.org/2000/svg" xmlns:xlink="http://www.w3.org/1999/xlink">
    <!-- Generator: Sketch 41 (35326) - http://www.bohemiancoding.com/sketch -->
    <title>i-features-3</title>
    <desc>Created with Sketch.</desc>
    <defs></defs>
    <g id="Page-1" stroke="none" stroke-width="1" fill="none" fill-rule="evenodd">
        <g id="Home-Page" transform="translate(-898.000000, -764.000000)">
            <g id="i-features-3" transform="translate(898.000000, 764.000000)">
                <circle id="Oval-5-Copy" fill="#F6F9FC" cx="35" cy="35" r="35"></circle>
                <g id="Group-16" transform="translate(22.000000, 23.500000)" fill="#2AA2FF">
                    <path d="M23.9384965,22.5 L3.96686525,22.5 C1.85361702,22.5 0,20.7475 0,18.75 L0,3.75 C0,1.7525 1.85361702,0 3.96686525,0 L18.7234043,0 C19.4136738,0 19.9716312,0.56 19.9716312,1.25 C19.9716312,1.94 19.4136738,2.5 18.7234043,2.5 L3.96686525,2.5 C3.22417021,2.5 2.4964539,3.11875 2.4964539,3.75 L2.4964539,18.75 C2.4964539,19.38125 3.22417021,20 3.96686525,20 L23.9384965,20 C24.6474894,20 24.964539,19.3725 24.964539,18.75 L24.964539,15 C24.964539,14.31 25.5224965,13.75 26.212766,13.75 C26.9030355,13.75 27.4609929,14.31 27.4609929,15 L27.4609929,18.75 C27.4609929,20.8875 25.9468936,22.5 23.9384965,22.5" id="Fill-1"></path>
                    <path d="M26.212766,8.75 C25.5224965,8.75 24.964539,8.19 24.964539,7.5 L24.964539,3.75 C24.964539,3.06125 24.4053333,2.5 23.7163121,2.5 C23.0260426,2.5 22.4680851,1.94 22.4680851,1.25 C22.4680851,0.56 23.0260426,0 23.7163121,0 C25.7808794,0 27.4609929,1.6825 27.4609929,3.75 L27.4609929,7.5 C27.4609929,8.19 26.9030355,8.75 26.212766,8.75" id="Fill-2"></path>
                    <path d="M27.4609929,16.25 L19.9716312,16.25 C18.5960851,16.25 17.4751773,15.12875 17.4751773,13.75 L17.4751773,8.75 C17.4751773,7.37125 18.5960851,6.25 19.9716312,6.25 L27.4609929,6.25 C28.836539,6.25 29.9574468,7.37125 29.9574468,8.75 L29.9574468,13.75 C29.9574468,15.12875 28.836539,16.25 27.4609929,16.25 L27.4609929,16.25 Z M27.4609929,8.74875 L19.9716312,8.75 L19.9716312,13.75 L27.4609929,13.75 L27.4609929,8.74875 L27.4609929,8.74875 Z" id="Fill-3"></path>
                    <path d="M23.9384965,11.25 C23.9384965,11.94 23.3792908,12.5 22.6902695,12.5 C22,12.5 21.4420426,11.94 21.4420426,11.25 C21.4420426,10.56 22,10 22.6902695,10 C23.3792908,10 23.9384965,10.56 23.9384965,11.25" id="Fill-4"></path>
                </g>
            </g>
        </g>
    </g>
</svg>