<?xml version="1.0" encoding="UTF-8"?>
<svg width="70px" height="70px" viewBox="0 0 70 70" version="1.1" xmlns="http://www.w3.org/2000/svg" xmlns:xlink="http://www.w3.org/1999/xlink">
    <!-- Generator: Sketch 41 (35326) - http://www.bohemiancoding.com/sketch -->
    <title>i-features-1</title>
    <desc>Created with Sketch.</desc>
    <defs></defs>
    <g id="Page-1" stroke="none" stroke-width="1" fill="none" fill-rule="evenodd">
        <g id="Home-Page" transform="translate(-98.000000, -764.000000)">
            <g id="i-features-1" transform="translate(98.000000, 764.000000)">
                <circle id="Oval-5" fill="#F6F9FC" cx="35" cy="35" r="35"></circle>
                <g id="Group-15" transform="translate(21.000000, 20.000000)" fill="#2AA2FF">
                    <path d="M3.74468085,30 C3.05441135,30 2.4964539,29.44125 2.4964539,28.75 L2.4964539,10 C2.4964539,9.30875 3.05441135,8.75 3.74468085,8.75 C4.43495035,8.75 4.9929078,9.30875 4.9929078,10 L4.9929078,28.75 C4.9929078,29.44125 4.43495035,30 3.74468085,30" id="Fill-200"></path>
                    <path d="M3.74468085,6.25 C3.05441135,6.25 2.4964539,5.69125 2.4964539,5 L2.4964539,1.25 C2.4964539,0.55875 3.05441135,0 3.74468085,0 C4.43495035,0 4.9929078,0.55875 4.9929078,1.25 L4.9929078,5 C4.9929078,5.69125 4.43495035,6.25 3.74468085,6.25" id="Fill-201"></path>
                    <path d="M13.7304965,30 C13.040227,30 12.4822695,29.44125 12.4822695,28.75 L12.4822695,25 C12.4822695,24.30875 13.040227,23.75 13.7304965,23.75 C14.420766,23.75 14.9787234,24.30875 14.9787234,25 L14.9787234,28.75 C14.9787234,29.44125 14.420766,30 13.7304965,30" id="Fill-202"></path>
                    <path d="M13.7304965,21.25 C13.040227,21.25 12.4822695,20.69125 12.4822695,20 L12.4822695,1.25 C12.4822695,0.55875 13.040227,0 13.7304965,0 C14.420766,0 14.9787234,0.55875 14.9787234,1.25 L14.9787234,20 C14.9787234,20.69125 14.420766,21.25 13.7304965,21.25" id="Fill-203"></path>
                    <path d="M23.7163121,30 C23.0260426,30 22.4680851,29.44125 22.4680851,28.75 L22.4680851,10 C22.4680851,9.30875 23.0260426,8.75 23.7163121,8.75 C24.4065816,8.75 24.964539,9.30875 24.964539,10 L24.964539,28.75 C24.964539,29.44125 24.4065816,30 23.7163121,30" id="Fill-204"></path>
                    <path d="M23.7163121,6.25 C23.0260426,6.25 22.4680851,5.69125 22.4680851,5 L22.4680851,1.25 C22.4680851,0.55875 23.0260426,0 23.7163121,0 C24.4065816,0 24.964539,0.55875 24.964539,1.25 L24.964539,5 C24.964539,5.69125 24.4065816,6.25 23.7163121,6.25" id="Fill-205"></path>
                    <path d="M3.74468085,11.25 C1.68011348,11.25 0,9.5675 0,7.5 C0,5.4325 1.68011348,3.75 3.74468085,3.75 C5.80924823,3.75 7.4893617,5.4325 7.4893617,7.5 C7.4893617,9.5675 5.80924823,11.25 3.74468085,11.25 L3.74468085,11.25 Z M3.74468085,6.25 C3.05565957,6.25 2.4964539,6.81 2.4964539,7.5 C2.4964539,8.19 3.05565957,8.75 3.74468085,8.75 C4.43370213,8.75 4.9929078,8.19 4.9929078,7.5 C4.9929078,6.81 4.43370213,6.25 3.74468085,6.25 L3.74468085,6.25 Z" id="Fill-206"></path>
                    <path d="M23.7163121,11.25 C21.6517447,11.25 19.9716312,9.5675 19.9716312,7.5 C19.9716312,5.4325 21.6517447,3.75 23.7163121,3.75 C25.7808794,3.75 27.4609929,5.4325 27.4609929,7.5 C27.4609929,9.5675 25.7808794,11.25 23.7163121,11.25 L23.7163121,11.25 Z M23.7163121,6.25 C23.0272908,6.25 22.4680851,6.81 22.4680851,7.5 C22.4680851,8.19 23.0272908,8.75 23.7163121,8.75 C24.4053333,8.75 24.964539,8.19 24.964539,7.5 C24.964539,6.81 24.4053333,6.25 23.7163121,6.25 L23.7163121,6.25 Z" id="Fill-207"></path>
                    <path d="M13.7304965,26.25 C11.6659291,26.25 9.9858156,24.5675 9.9858156,22.5 C9.9858156,20.4325 11.6659291,18.75 13.7304965,18.75 C15.7950638,18.75 17.4751773,20.4325 17.4751773,22.5 C17.4751773,24.5675 15.7950638,26.25 13.7304965,26.25 L13.7304965,26.25 Z M13.7304965,21.25 C13.0414752,21.25 12.4822695,21.81 12.4822695,22.5 C12.4822695,23.19 13.0414752,23.75 13.7304965,23.75 C14.4195177,23.75 14.9787234,23.19 14.9787234,22.5 C14.9787234,21.81 14.4195177,21.25 13.7304965,21.25 L13.7304965,21.25 Z" id="Fill-208"></path>
                </g>
            </g>
        </g>
    </g>
</svg>