<?xml version="1.0" encoding="UTF-8"?>
<svg width="70px" height="70px" viewBox="0 0 70 70" version="1.1" xmlns="http://www.w3.org/2000/svg" xmlns:xlink="http://www.w3.org/1999/xlink">
    <!-- Generator: Sketch 41 (35326) - http://www.bohemiancoding.com/sketch -->
    <title>i-features-2</title>
    <desc>Created with Sketch.</desc>
    <defs></defs>
    <g id="Page-1" stroke="none" stroke-width="1" fill="none" fill-rule="evenodd">
        <g id="Home-Page" transform="translate(-498.000000, -764.000000)">
            <g id="i-features-2" transform="translate(498.000000, 764.000000)">
                <circle id="Oval-5" fill="#F6F9FC" cx="35" cy="35" r="35"></circle>
                <g id="Group-14" transform="translate(23.000000, 20.000000)" fill="#2AA2FF">
                    <path d="M22.5629504,25 C21.9151206,25 21.3659007,24.4975 21.3197163,23.83875 L20.6943546,15.0675 C20.3910355,10.82375 16.8273475,7.5 12.578383,7.5 C8.33066667,7.5 4.7657305,10.82375 4.46365957,15.0675 L4.08794326,20.33 C4.03926241,21.01875 3.45883688,21.53375 2.75483688,21.48875 C2.06706383,21.44 1.54904965,20.84125 1.59897872,20.15375 L1.97469504,14.88875 C2.36788652,9.34375 7.0262695,5 12.578383,5 C18.1292482,5 22.7888794,9.34375 23.1833191,14.88875 L23.8086809,23.66125 C23.8586099,24.35 23.3405957,24.9475 22.6528227,24.9975 C22.6228652,24.99875 22.5929078,25 22.5629504,25" id="Fill-149"></path>
                    <path d="M23.7163121,26.25 L1.24822695,26.25 C0.557957447,26.25 0,25.69 0,25 C0,24.31 0.557957447,23.75 1.24822695,23.75 L23.7163121,23.75 C24.4065816,23.75 24.964539,24.31 24.964539,25 C24.964539,25.69 24.4065816,26.25 23.7163121,26.25" id="Fill-150"></path>
                    <path d="M12.7044539,29.925 C9.89719149,29.925 7.42570213,28.03375 6.69424113,25.32625 C6.59188652,24.95 6.67177305,24.55 6.90768794,24.24 C7.14485106,23.93125 7.51058156,23.75 7.89878014,23.75 L17.5088794,23.75 C17.8983262,23.75 18.2640567,23.93125 18.4999716,24.24 C18.7371348,24.55 18.815773,24.95 18.7134184,25.32625 C17.9819574,28.03375 15.5117163,29.925 12.7044539,29.925 L12.7044539,29.925 Z M9.9858156,26.25 C10.6748369,26.98125 11.6497021,27.425 12.7044539,27.425 C13.7592057,27.425 14.7340709,26.98125 15.4230922,26.25 L9.9858156,26.25 L9.9858156,26.25 Z" id="Fill-151"></path>
                    <path d="M15.2009078,7.5 C14.5106383,7.5 13.9526809,6.94 13.9526809,6.25 L13.9526809,3.75 C13.9526809,3.06125 13.392227,2.5 12.7044539,2.5 C12.0154326,2.5 11.456227,3.06125 11.456227,3.75 L11.456227,6.25 C11.456227,6.94 10.8970213,7.5 10.208,7.5 C9.5177305,7.5 8.95977305,6.94 8.95977305,6.25 L8.95977305,3.75 C8.95977305,1.6825 10.6386383,0 12.7044539,0 C14.7690213,0 16.4491348,1.6825 16.4491348,3.75 L16.4491348,6.25 C16.4491348,6.94 15.8911773,7.5 15.2009078,7.5" id="Fill-152"></path>
                </g>
            </g>
        </g>
    </g>
</svg>