<?xml version="1.0" encoding="UTF-8"?>
<svg width="33px" height="33px" viewBox="0 0 33 33" version="1.1" xmlns="http://www.w3.org/2000/svg" xmlns:xlink="http://www.w3.org/1999/xlink">
    <!-- Generator: Sketch 41 (35326) - http://www.bohemiancoding.com/sketch -->
    <title>i-gear-1</title>
    <desc>Created with Sketch.</desc>
    <defs></defs>
    <g id="Page-1" stroke="none" stroke-width="1" fill="none" fill-rule="evenodd">
        <g id="Home-Page" transform="translate(-662.000000, -1239.000000)" fill="#2AA2FF">
            <g id="Group-2" transform="translate(646.000000, 1215.000000)">
                <path d="M48.2734863,41.9260086 L48.2734863,38.6157567 L45.8430952,37.7883284 C45.7120139,37.0469109 45.5153919,36.3306324 45.2720835,35.6342854 L46.9599798,33.7036193 L45.3051232,30.8406599 L42.7833343,31.3330228 C42.5341002,31.05039 42.284507,30.7745805 42.0280904,30.5185231 C41.7655687,30.2560013 41.4897593,30.0004826 41.2074855,29.7573537 L41.7066719,27.2420291 L38.8428146,25.5877111 L36.906223,27.2743505 C36.2158016,27.0261938 35.5009595,26.8349587 34.7586443,26.6974132 L33.931216,24.2734863 L30.6150384,24.2734863 L29.7867123,26.6974132 C29.0452949,26.8347792 28.329555,27.0260142 27.6341058,27.2743505 L25.7029011,25.5877111 L22.8395825,27.2420291 L23.3387689,29.7573537 C23.056136,30.0001234 22.7738623,30.2561809 22.5178048,30.5185231 C22.2488188,30.7819426 21.9933,31.0642164 21.7496324,31.3533135 L21.7560967,31.3335615 L19.2416699,30.8411986 L17.5859155,33.704158 L19.2738118,35.6348241 C19.031042,36.3311711 18.8344201,37.0533752 18.6965153,37.7888671 L16.2734863,38.6162954 L16.2734863,41.9265473 L18.6965153,42.7539756 C18.8344201,43.4953931 19.0315807,44.218495 19.2738118,44.9080186 L17.5859155,46.8386847 L19.2416699,49.7075697 L21.7560967,49.2083834 C21.9997643,49.4906571 22.2552831,49.7668256 22.5178048,50.0293474 C22.7803266,50.292767 23.0634981,50.5488244 23.3452331,50.7910555 L22.8395825,53.3004545 L25.7093653,54.9612367 L27.6344649,53.2736996 C28.3299141,53.5168285 29.052657,53.71363 29.7870714,53.8450704 L30.6153976,56.2734863 L33.9315751,56.2734863 L34.7590034,53.8450704 C35.5013187,53.71363 36.2161607,53.5168285 36.9130464,53.2657988 L38.8431738,54.9610572 L41.707031,53.3002749 L41.2078447,50.7840525 C41.4901184,50.5409236 41.7659278,50.2863027 42.0284496,50.0288087 C42.2848662,49.766287 42.5405645,49.4901184 42.7836934,49.2078447 L45.3054823,49.707031 L46.9603389,46.838146 L45.2724426,44.9074799 C45.5155715,44.2179563 45.712373,43.4953931 45.8434543,42.7534369 L48.2734863,41.9260086 Z M32.2765389,44.9200494 C29.7028562,44.9200494 27.6208181,42.8394478 27.6208181,40.2722294 C27.6208181,37.7030357 29.7026766,35.6226138 32.2765389,35.6226138 C34.8439369,35.6226138 36.9261545,37.7032153 36.9261545,40.2722294 C36.9257954,42.8394478 34.8437574,44.9200494 32.2765389,44.9200494 Z" id="i-gear-1"></path>
            </g>
        </g>
    </g>
</svg>