<?xml version="1.0" encoding="UTF-8"?>
<svg width="24px" height="24px" viewBox="0 0 24 24" version="1.1" xmlns="http://www.w3.org/2000/svg" xmlns:xlink="http://www.w3.org/1999/xlink">
    <!-- Generator: Sketch 41 (35326) - http://www.bohemiancoding.com/sketch -->
    <title>i-gear-2</title>
    <desc>Created with Sketch.</desc>
    <defs></defs>
    <g id="Page-1" stroke="none" stroke-width="1" fill="none" fill-rule="evenodd">
        <g id="Home-Page" transform="translate(-683.000000, -1234.000000)" fill="#464A5C">
            <g id="Group-2" transform="translate(646.000000, 1215.000000)">
                <path d="M61,32.2405572 L61,29.7586675 L59.1782652,29.1374682 L59.1782652,29.1399879 C59.0774883,28.5833313 58.9327186,28.0433434 58.7470566,27.5229316 L60.0121933,26.0745003 L58.7712818,23.9246275 L56.8840421,24.2973471 L56.8904375,24.3082011 C56.7069074,24.0918958 56.5144624,23.8845064 56.3154282,23.6850636 C56.115425,23.4850394 55.9070883,23.2931557 55.6913871,23.1090248 L55.7018524,23.115421 L56.0745329,21.227983 L53.9252733,19.9859721 L52.4756375,21.2527922 C51.9546989,21.0676923 51.4159305,20.9217444 50.860689,20.8196002 L50.8622394,20.8196002 L50.2414929,19 L47.7579257,19 L47.1377606,20.8196002 L47.139311,20.8196002 C46.5840695,20.9217444 46.0439445,21.0676923 45.5224245,21.2527922 L44.0741453,19.9859721 L41.9248857,21.227983 L42.2979538,23.115421 L42.3084191,23.1090248 C42.0921365,23.2931557 41.8841874,23.4846517 41.6837966,23.6850636 C41.4837933,23.8845064 41.2923174,24.0918958 41.1093687,24.3082011 L41.1163455,24.2973471 L39.2281368,23.9246275 L37.9872252,26.0750818 L39.2529434,27.5225439 C39.0674752,28.0429558 38.9225117,28.5829437 38.8213472,29.1390188 L38.8213472,29.1370806 L37,29.7582798 L37,32.2411387 L38.8213472,32.8619503 L38.8213472,32.8603998 C38.9225117,33.4166687 39.0674752,33.9554936 39.2529434,34.4759055 L37.9872252,35.9247244 L39.2285244,38.0757601 L41.1163455,37.7020715 L41.1093687,37.6916051 C41.2925112,37.9075227 41.4853438,38.1152998 41.6837966,38.3143549 C41.8837998,38.5143792 42.0921365,38.7062629 42.3068687,38.8894246 L41.9243043,40.7710478 L44.0751143,42.0144155 L45.5218431,40.7472078 C46.0433631,40.9332768 46.5821315,41.0782556 47.1381482,41.1794306 L47.1371792,41.1794306 L47.7573443,43 L50.2409115,43 L50.861658,41.1794306 L50.8599138,41.1794306 C51.4165119,41.0776741 51.9552803,40.9328892 52.4762189,40.7472078 L53.9244981,42.0144155 L56.0741453,40.7710478 L55.7010772,38.884579 L55.6906119,38.8900061 C55.9065069,38.7068443 56.1148436,38.5153483 56.314653,38.3149364 C56.5136872,38.1158813 56.7061322,37.9081042 56.8886933,37.6921866 L56.8832668,37.7026529 L58.7705066,38.074791 L60.0118057,35.9253059 L58.7460876,34.476487 C58.9315557,33.9560751 59.0765193,33.4166687 59.1772961,32.8609812 L59.1772961,32.8625318 L61,32.2405572 Z M49.0002112,33.005104 C47.892443,33.005104 46.9948332,32.1072475 46.9948332,30.9995154 C46.9948332,29.8920119 47.8925953,28.9939269 49.0002112,28.9939269 C50.1075985,28.9939269 51.0053606,29.8920119 51.0053606,30.9995154 C51.0054368,32.1072475 50.1076746,33.005104 49.0002112,33.005104 Z" id="i-gear-2"></path>
            </g>
        </g>
    </g>
</svg>