<svg width="70" height="70" viewBox="0 0 70 70" xmlns="http://www.w3.org/2000/svg"><title>i-features-3</title><g fill="none" fill-rule="evenodd"><circle fill="#F6F9FC" cx="35" cy="35" r="35"/><g fill="#2AA2FF"><path d="M45.938 46H25.967C23.854 46 22 44.247 22 42.25v-15c0-1.998 1.854-3.75 3.967-3.75h14.756a1.249 1.249 0 1 1 0 2.5H25.967c-.743 0-1.47.619-1.47 1.25v15c0 .631.727 1.25 1.47 1.25h19.971c.71 0 1.027-.628 1.027-1.25V38.5a1.249 1.249 0 1 1 2.496 0v3.75c0 2.137-1.514 3.75-3.523 3.75m2.275-13.75c-.69 0-1.248-.56-1.248-1.25v-3.75c0-.689-.56-1.25-1.249-1.25-.69 0-1.248-.56-1.248-1.25s.558-1.25 1.248-1.25a3.752 3.752 0 0 1 3.745 3.75V31c0 .69-.558 1.25-1.248 1.25"/><path d="M49.461 39.75h-7.49a2.502 2.502 0 0 1-2.496-2.5v-5c0-1.379 1.121-2.5 2.497-2.5h7.489a2.502 2.502 0 0 1 2.496 2.5v5a2.5 2.5 0 0 1-2.496 2.5zm0-7.501l-7.49.001v5h7.49v-5.001z"/><path d="M45.938 34.75a1.249 1.249 0 0 1-2.496 0 1.249 1.249 0 1 1 2.496 0"/></g></g></svg>