<svg width="70" height="70" viewBox="0 0 70 70" xmlns="http://www.w3.org/2000/svg"><title>i-features-2</title><g fill="none" fill-rule="evenodd"><circle fill="#F6F9FC" cx="35" cy="35" r="35"/><g fill="#2AA2FF"><path d="M45.563 45a1.249 1.249 0 0 1-1.243-1.161l-.626-8.771c-.303-4.244-3.867-7.568-8.116-7.568-4.247 0-7.812 3.324-8.114 7.568l-.376 5.262a1.248 1.248 0 0 1-2.489-.176l.376-5.265C25.368 29.344 30.026 25 35.578 25c5.551 0 10.21 4.344 10.605 9.889l.626 8.772a1.25 1.25 0 0 1-1.156 1.336l-.09.003"/><path d="M46.716 46.25H24.248c-.69 0-1.248-.56-1.248-1.25s.558-1.25 1.248-1.25h22.468a1.249 1.249 0 1 1 0 2.5"/><path d="M35.704 49.925a6.235 6.235 0 0 1-6.01-4.599A1.25 1.25 0 0 1 30.9 43.75h9.61a1.246 1.246 0 0 1 1.204 1.576 6.234 6.234 0 0 1-6.009 4.599zm-2.718-3.675a3.734 3.734 0 0 0 5.437 0h-5.437zM38.2 27.5c-.69 0-1.247-.56-1.247-1.25v-2.5c0-.689-.56-1.25-1.249-1.25a1.25 1.25 0 0 0-1.248 1.25v2.5a1.249 1.249 0 0 1-2.496 0v-2.5A3.751 3.751 0 0 1 35.704 20a3.752 3.752 0 0 1 3.745 3.75v2.5c0 .69-.558 1.25-1.248 1.25"/></g></g></svg>