<svg width="70" height="70" viewBox="0 0 70 70" xmlns="http://www.w3.org/2000/svg"><title>i-features-1</title><g fill="none" fill-rule="evenodd"><circle fill="#F6F9FC" cx="35" cy="35" r="35"/><g fill="#2AA2FF"><path d="M24.745 50c-.69 0-1.249-.559-1.249-1.25V30a1.248 1.248 0 1 1 2.497 0v18.75c0 .691-.558 1.25-1.248 1.25m0-23.75c-.69 0-1.249-.559-1.249-1.25v-3.75a1.248 1.248 0 1 1 2.497 0V25c0 .691-.558 1.25-1.248 1.25M34.73 50c-.69 0-1.248-.559-1.248-1.25V45a1.248 1.248 0 1 1 2.497 0v3.75c0 .691-.558 1.25-1.249 1.25m0-8.75c-.69 0-1.248-.559-1.248-1.25V21.25a1.248 1.248 0 1 1 2.497 0V40c0 .691-.558 1.25-1.249 1.25M44.716 50c-.69 0-1.248-.559-1.248-1.25V30a1.248 1.248 0 1 1 2.497 0v18.75c0 .691-.558 1.25-1.249 1.25m0-23.75c-.69 0-1.248-.559-1.248-1.25v-3.75a1.248 1.248 0 1 1 2.497 0V25c0 .691-.558 1.25-1.249 1.25"/><path d="M24.745 31.25A3.752 3.752 0 0 1 21 27.5c0-2.067 1.68-3.75 3.745-3.75a3.752 3.752 0 0 1 3.744 3.75c0 2.068-1.68 3.75-3.744 3.75zm0-5a1.25 1.25 0 0 0 0 2.5 1.25 1.25 0 0 0 0-2.5zm19.971 5a3.752 3.752 0 0 1-3.744-3.75c0-2.067 1.68-3.75 3.744-3.75a3.752 3.752 0 0 1 3.745 3.75c0 2.068-1.68 3.75-3.745 3.75zm0-5a1.25 1.25 0 0 0 0 2.5 1.25 1.25 0 0 0 0-2.5zm-9.986 20a3.752 3.752 0 0 1-3.744-3.75c0-2.067 1.68-3.75 3.744-3.75a3.752 3.752 0 0 1 3.745 3.75c0 2.067-1.68 3.75-3.745 3.75zm0-5a1.25 1.25 0 0 0 0 2.5 1.25 1.25 0 0 0 0-2.5z"/></g></g></svg>