<svg width="24" height="24" viewBox="0 0 24 24" xmlns="http://www.w3.org/2000/svg"><title>i-gear-2</title><path d="M24 13.24v-2.48l-1.822-.622v.003c-.1-.557-.245-1.097-.43-1.617l1.264-1.448-1.24-2.15-1.888.372.006.011a10.501 10.501 0 0 0-1.199-1.199l.01.006.374-1.887-2.15-1.242-1.45 1.267c-.52-.185-1.06-.331-1.614-.433h.001L13.242 0h-2.484l-.62 1.82h.001c-.555.102-1.095.248-1.617.433L7.074.986l-2.15 1.242.374 1.887.01-.006a10.586 10.586 0 0 0-1.199 1.2l.007-.012-1.888-.372-1.24 2.15 1.265 1.448c-.186.52-.33 1.06-.432 1.616v-.002L0 10.758v2.483l1.821.621v-.002c.102.557.246 1.095.432 1.616L.987 16.925l1.242 2.15 1.887-.373-.007-.01a10.55 10.55 0 0 0 1.198 1.197l-.383 1.882 2.151 1.243 1.447-1.267c.521.186 1.06.331 1.616.432l.62 1.821h2.483l.62-1.82h-.001a10.351 10.351 0 0 0 1.616-.433l1.448 1.267 2.15-1.243-.373-1.886-.01.005a10.182 10.182 0 0 0 1.198-1.198l-.006.01 1.888.373 1.24-2.15-1.265-1.449c.186-.52.33-1.06.431-1.615v.002L24 13.24zm-12 .765a2.005 2.005 0 1 1 0-4.01 2.005 2.005 0 0 1 0 4.01z" fill="#464A5C" fill-rule="evenodd"/></svg>