<svg width="33" height="33" viewBox="0 0 33 33" xmlns="http://www.w3.org/2000/svg"><title>i-gear-1</title><path d="M32.273 17.926v-3.31l-2.43-.828a13.813 13.813 0 0 0-.57-2.154l1.687-1.93-1.655-2.863-2.522.492a16.963 16.963 0 0 0-.755-.814 15.108 15.108 0 0 0-.82-.762l.499-2.515-2.864-1.654-1.937 1.686a13.782 13.782 0 0 0-2.147-.577L17.93.273h-3.316l-.828 2.424c-.742.138-1.457.329-2.153.577l-1.93-1.686L6.84 3.242l.499 2.515c-.283.243-.565.5-.821.762-.27.263-.525.545-.768.834l.006-.02-2.514-.492-1.656 2.863 1.688 1.93c-.243.697-.44 1.42-.577 2.155l-2.424.827v3.31l2.424.828c.137.741.335 1.464.577 2.154l-1.688 1.93 1.656 2.87 2.514-.5a14.183 14.183 0 0 0 1.589 1.583l-.505 2.51 2.87 1.66 1.924-1.687c.696.243 1.419.44 2.153.571l.828 2.428h3.317l.827-2.428a13.053 13.053 0 0 0 2.154-.58l1.93 1.696 2.864-1.66-.5-2.517c.283-.243.559-.498.821-.755.257-.263.513-.539.756-.821l2.521.499 1.655-2.869-1.688-1.93c.244-.69.44-1.413.571-2.155l2.43-.827zM16.277 20.92a4.65 4.65 0 0 1-4.656-4.648 4.65 4.65 0 0 1 4.656-4.65 4.65 4.65 0 1 1 0 9.298z" fill="#2AA2FF" fill-rule="evenodd"/></svg>